<svg xmlns="http://www.w3.org/2000/svg" width="670.878" height="250.8255" viewBox="0 0 670.878 250.8255"><defs><style>.a{fill:#060f38;}</style></defs><polygon class="a" points="177.815 135.481 72.267 135.4 34.44 46.691 130.898 46.763 161.768 0.078 56.22 0 30.875 38.33 30.869 38.316 0 84.999 41.404 182.085 146.947 182.166 177.815 135.481"/><polygon class="a" points="268.146 164.771 226.759 67.671 121.21 67.596 90.34 114.279 195.89 114.359 233.693 203.044 137.248 202.974 106.378 249.659 211.927 249.736 237.263 211.42 237.278 211.455 268.146 164.771"/><path class="a" d="M315.1837,112.7443v-1.8578h11.5871v1.2012c0,9.0727,3.8264,13.6638,19.13,13.6638,10.8224,0,14.7568-2.9522,14.7568-9.7294,0-6.6677-2.1861-9.0727-13.4449-11.3682L334.7518,102.14c-12.5721-2.405-19.3492-8.5256-19.3492-20.1127,0-10.821,8.4174-20.8787,27.3289-20.8787,20.2221,0,28.3112,11.3682,28.3112,24.3754v1.3133H359.4555V85.6329c0-8.9632-3.9344-13.6637-17.0523-13.6637-10.8224,0-15.1946,3.0616-15.1946,9.51,0,6.6678,2.9508,8.5255,13.0085,10.7143l12.4613,2.6212c13.7732,2.8427,19.7856,9.7293,19.7856,20.7719,0,11.4777-8.3079,20.9882-27.0006,20.9882C324.3658,136.5752,315.1837,126.8459,315.1837,112.7443Z"/><path class="a" d="M385.7337,153.079v-9.6172h7.4338c4.7,0,6.3395-.7661,8.0891-4.81l2.0767-4.5911L380.2685,81.1513H393.277l10.93,26.3453,4.9194,11.806h.8741l4.4817-11.806,9.9482-26.3453h13.0085L411.7507,141.93c-4.0452,9.62-9.2916,12.1343-17.8184,12.1343A33.5775,33.5775,0,0,1,385.7337,153.079Z"/><path class="a" d="M447.8663,135.4808V81.1513h10.8224V91.3184h.4365C461.64,85.5235,467.4331,80.06,478.0366,80.06c14.1016,0,20.4423,8.9633,20.4423,21.3165v34.1047h-11.806V103.9972c0-9.7266-3.0616-13.7732-13.0084-13.7732-9.62,0-13.9922,3.7183-13.9922,13.8827v31.3741Z"/><path class="a" d="M518.0881,118.7554V90.99h-9.0728V81.1513h9.2916l2.5145-13.4449h9.0727V81.1513h16.397V90.99h-16.397v27.2181c0,5.6855,2.4049,6.67,9.7293,6.67h6.6677v9.6173a45.9849,45.9849,0,0,1-9.728.9849C524.4288,135.4808,518.0881,130.9992,518.0881,118.7554Z"/><path class="a" d="M556.3871,122.0359c0-8.9633,6.5583-13.6638,18.1468-15.3054l19.02-2.84v-2.9522c0-8.09-3.7169-10.4954-12.2424-10.4954-8.6363,0-12.0249,2.7333-12.0249,9.9482V102.03H557.9179v-1.0917c0-12.1343,9.51-20.8787,24.0485-20.8787,15.1945,0,22.8472,9.1821,22.8472,22.4082v33.013H593.8818v-8.5255h-.5472c-3.17,5.1356-9.401,9.62-19.6762,9.62C563.93,136.5752,556.3871,131.5464,556.3871,122.0359Zm21.0976,5.1383c7.6514,0,16.0688-3.0616,16.0688-13.9921v-.985l-17.2713,2.6239c-6.2313.8728-8.4174,2.2955-8.4174,6.3394C567.8648,125.4232,570.5981,127.1742,577.4847,127.1742Z"/><path class="a" d="M613.8166,135.4808l19.4586-27.3276v-.766L613.8166,81.1513h13.7745l14.6474,20.1153h.7648l14.5392-20.1153H670.878l-19.4573,26.6736v.8729l19.4573,26.783H657.1048l-14.6474-20.7693h-.7647l-14.5393,20.7693Z"/><path class="a" d="M315.84,249.7312V176.49h11.806v73.241Z"/><path class="a" d="M342.6234,249.7312v-54.33h10.8224v10.1671h.4364c2.5144-5.7949,8.308-11.2588,18.9115-11.2588,14.1015,0,20.4423,8.9633,20.4423,21.3165v34.1048H381.43V218.2476c0-9.7267-3.0616-13.7732-13.0085-13.7732-9.62,0-13.9921,3.7182-13.9921,13.8826v31.3742Z"/><path class="a" d="M405.5985,231.3669v-.2189h11.3683v1.9672c0,5.9043,2.6238,8.09,13.0085,8.09,8.7457,0,10.3846-1.9672,10.3846-6.0137,0-4.3722-2.6225-5.6828-10.6035-7.1055l-8.4161-1.42c-9.7293-1.7483-15.8512-6.12-15.8512-15.9593s8.0891-16.3971,22.3-16.3971c12.79,0,22.4095,6.34,22.4095,18.6927v.9822H438.94v-1.3106c0-5.0288-1.75-8.6349-11.479-8.6349-8.635,0-10.7117,2.2955-10.7117,6.4488s1.9673,5.3572,9.6186,6.8867l9.1822,1.7483c10.494,2.0767,15.9606,6.7772,15.9606,15.74,0,10.0577-7.98,15.962-21.7542,15.962C413.9065,250.8255,405.5985,244.5929,405.5985,231.3669Z"/><path class="a" d="M467.37,233.0058V205.24h-9.0727v-9.8388h9.2916l2.5144-13.4449h9.0728v13.4449h16.397V205.24h-16.397v27.2182c0,5.6854,2.4049,6.67,9.7293,6.67h6.6677v9.6172a45.9841,45.9841,0,0,1-9.728.985C473.7106,249.7312,467.37,245.25,467.37,233.0058Z"/><path class="a" d="M505.3076,188.515l-.1094-12.0248h11.806V188.515Zm0,61.2162V195.0733h11.8047v54.6579Z"/><path class="a" d="M534.497,233.0058V205.24h-9.0727v-9.8388h9.2916l2.5144-13.4449h9.0727v13.4449H562.7V205.24H546.303v27.2182c0,5.6854,2.405,6.67,9.7293,6.67H562.7v9.6172a45.9856,45.9856,0,0,1-9.728.985C540.8377,249.7312,534.497,245.25,534.497,233.0058Z"/><path class="a" d="M573.2,228.9619v-33.56h11.806v31.4836c0,9.7294,3.7169,13.7732,13.1179,13.7732,9.0727,0,14.211-3.9344,14.211-14.6487V195.4016H624.14v54.33H613.2086V238.91h-.4378c-2.6225,6.23-8.4161,11.9154-19.02,11.9154C579.54,250.8255,573.2,241.3151,573.2,228.9619Z"/><path class="a" d="M642.0763,233.0058V205.24h-9.0727v-9.8388h9.2916l2.5144-13.4449h9.0727v13.4449h16.3971V205.24H653.8823v27.2182c0,5.6854,2.405,6.67,9.7293,6.67h6.6678v9.6172a45.9856,45.9856,0,0,1-9.728.985C648.4171,249.7312,642.0763,245.25,642.0763,233.0058Z"/></svg>